g tmp
vn 0 0 -1
vn -1 0 0
vn 0 1 0
vn 0 -1 0
vn 1 0 0
vn 0 0 1
#v-0
v 2 2 2
v 4 2 2
v 2 4 2
v 4 4 2
v 2 2 4
v 4 2 4
v 2 4 4
v 4 4 4
#f-0
#v-1
v 4 2 2
v 6 2 2
v 4 4 2
v 6 4 2
v 4 2 4
v 6 2 4
v 4 4 4
v 6 4 4
#f-1
f 9//1 11//1 10//1
f 10//1 11//1 12//1
f 11//3 15//3 12//3
f 12//3 15//3 16//3
f 9//4 10//4 13//4
f 10//4 14//4 13//4
f 10//5 12//5 14//5
f 12//5 16//5 14//5
f 13//6 14//6 15//6
f 14//6 16//6 15//6
#v-2
v 2 2 4
v 4 2 4
v 2 4 4
v 4 4 4
v 2 2 6
v 4 2 6
v 2 4 6
v 4 4 6
#f-2
f 17//2 21//2 19//2
f 19//2 21//2 23//2
f 19//3 23//3 20//3
f 20//3 23//3 24//3
f 17//4 18//4 21//4
f 18//4 22//4 21//4
f 18//5 20//5 22//5
f 20//5 24//5 22//5
f 21//6 22//6 23//6
f 22//6 24//6 23//6
#v-3
v 2 4 2
v 4 4 2
v 2 6 2
v 4 6 2
v 2 4 4
v 4 4 4
v 2 6 4
v 4 6 4
#f-3
f 25//1 27//1 26//1
f 26//1 27//1 28//1
f 25//2 29//2 27//2
f 27//2 29//2 31//2
f 27//3 31//3 28//3
f 28//3 31//3 32//3
f 26//5 28//5 30//5
f 28//5 32//5 30//5
f 29//6 30//6 31//6
f 30//6 32//6 31//6
#v-4
v 0 2 2
v 2 2 2
v 0 4 2
v 2 4 2
v 0 2 4
v 2 2 4
v 0 4 4
v 2 4 4
#f-4
f 33//1 35//1 34//1
f 34//1 35//1 36//1
f 33//2 37//2 35//2
f 35//2 37//2 39//2
f 35//3 39//3 36//3
f 36//3 39//3 40//3
f 33//4 34//4 37//4
f 34//4 38//4 37//4
f 37//6 38//6 39//6
f 38//6 40//6 39//6
#v-5
v 2 2 0
v 4 2 0
v 2 4 0
v 4 4 0
v 2 2 2
v 4 2 2
v 2 4 2
v 4 4 2
#f-5
f 41//1 43//1 42//1
f 42//1 43//1 44//1
f 41//2 45//2 43//2
f 43//2 45//2 47//2
f 43//3 47//3 44//3
f 44//3 47//3 48//3
f 41//4 42//4 45//4
f 42//4 46//4 45//4
f 42//5 44//5 46//5
f 44//5 48//5 46//5
#v-6
v 2 0 2
v 4 0 2
v 2 2 2
v 4 2 2
v 2 0 4
v 4 0 4
v 2 2 4
v 4 2 4
#f-6
f 49//1 51//1 50//1
f 50//1 51//1 52//1
f 49//2 53//2 51//2
f 51//2 53//2 55//2
f 49//4 50//4 53//4
f 50//4 54//4 53//4
f 50//5 52//5 54//5
f 52//5 56//5 54//5
f 53//6 54//6 55//6
f 54//6 56//6 55//6
